D:\school\WTK\thesis\model\3dpredictsim\Results\debug_batch\Pog_s1_tmt_bCst_d05_k2000_ig24_act_TTC_GRF.mot
nRows=30
nColumns=19

name D:\school\WTK\thesis\model\3dpredictsim\Results\debug_batch\Pog_s1_tmt_bCst_d05_k2000_ig24_act_TTC_GRF.mot
datacolumns 19
datarows 30
range 0.6022775978 0.9515986045
endheader
time 	ground_force_vx	ground_force_vy	ground_force_vz	ground_force_px	ground_force_py	ground_force_pz	1_ground_force_vx	1_ground_force_vy	1_ground_force_vz	1_ground_force_px	1_ground_force_py	1_ground_force_pz	ground_torque_x	ground_torque_y	ground_torque_z	1_ground_torque_x	1_ground_torque_y	1_ground_torque_z
        0.6022775978	      107.2833738376	      438.5406971426	        1.1833123403	        0.4050075578	        0.0000000000	        0.0364689509	      -54.0393150256	       42.1524132764	      -13.5358974816	        0.9389578470	        0.0000000000	       -0.0511366351	        0.0000000000	        0.0000000000	        0.0000000000	        0.0000000000	        0.0000000000	        0.0000000000	
        0.6143231498	       75.4553333105	      337.7218359755	        6.6743055890	        0.4121075448	        0.0000000000	        0.0337558717	     -122.6877459510	      125.4956881187	      -44.2974901648	        0.9471720332	        0.0000000000	       -0.0492301741	        0.0000000000	        0.0000000000	        0.0000000000	        0.0000000000	        0.0000000000	        0.0000000000	
        0.6263687017	       41.3766964503	      225.0334662904	       13.7643327674	        0.4248666387	        0.0000000000	        0.0284901425	      -60.0000292237	      296.6810610665	      -17.4757184285	        0.9528727999	        0.0000000000	       -0.0473822833	        0.0000000000	        0.0000000000	        0.0000000000	        0.0000000000	        0.0000000000	        0.0000000000	
        0.6384142537	       26.6213311576	      167.7728896941	       15.5417865044	        0.4335424205	        0.0000000000	        0.0244419275	      -54.6072255155	      492.0934732332	        3.7502779072	        0.9561729189	        0.0000000000	       -0.0472740446	        0.0000000000	        0.0000000000	        0.0000000000	        0.0000000000	        0.0000000000	        0.0000000000	
        0.6504598056	       24.3805787007	      133.8770488671	       13.9575929167	        0.4339222647	        0.0000000000	        0.0243958640	      -96.5931236164	      703.9029064012	       14.3209096799	        0.9649033601	        0.0000000000	       -0.0492987833	        0.0000000000	        0.0000000000	        0.0000000000	        0.0000000000	        0.0000000000	        0.0000000000	
        0.6625053576	       14.7856960392	       87.4855540154	       14.0736672312	        0.4341897591	        0.0000000000	        0.0246314706	     -129.4564080906	      848.2351489857	       20.2668439024	        0.9729097386	        0.0000000000	       -0.0512189518	        0.0000000000	        0.0000000000	        0.0000000000	        0.0000000000	        0.0000000000	        0.0000000000	
        0.6745509095	        0.8881541608	       35.4583648173	        8.7382920152	        0.4337850096	        0.0000000000	        0.0247874095	     -138.5632109295	      886.2129632733	       21.0963933262	        0.9781826538	        0.0000000000	       -0.0523681921	        0.0000000000	        0.0000000000	        0.0000000000	        0.0000000000	        0.0000000000	        0.0000000000	
        0.6865964615	        0.2923801664	       -0.2950767360	       -0.0091142952	        0.0000000000	        0.0000000000	        0.0000000000	     -130.4045732306	      868.9274521494	       20.2027142987	        0.9820398949	        0.0000000000	       -0.0530535012	        0.0000000000	        0.0000000000	        0.0000000000	        0.0000000000	        0.0000000000	        0.0000000000	
        0.6986420135	        0.0017639484	       -0.0014224523	        0.0001033659	        0.0000000000	        0.0000000000	        0.0000000000	     -114.8995678656	      828.4894623634	       19.4804144291	        0.9856765541	        0.0000000000	       -0.0534253568	        0.0000000000	        0.0000000000	        0.0000000000	        0.0000000000	        0.0000000000	        0.0000000000	
        0.7106875654	        0.0023404941	       -0.0016146173	        0.0001742730	        0.0000000000	        0.0000000000	        0.0000000000	     -100.2325055617	      783.0926375013	       18.6001487589	        0.9895687015	        0.0000000000	       -0.0535450001	        0.0000000000	        0.0000000000	        0.0000000000	        0.0000000000	        0.0000000000	        0.0000000000	
        0.7227331174	        0.0283062121	       -0.0174033692	        0.0022486795	        0.0000000000	        0.0000000000	        0.0000000000	      -88.3819294085	      744.0196400184	       18.2165013413	        0.9939727746	        0.0000000000	       -0.0534949242	        0.0000000000	        0.0000000000	        0.0000000000	        0.0000000000	        0.0000000000	        0.0000000000	
        0.7347786693	       -0.1634212549	        0.0918897713	       -0.0132588336	        0.0000000000	        0.0000000000	        0.0000000000	      -78.7302272063	      714.4738347084	       18.0036877827	        0.9990652955	        0.0000000000	       -0.0532650158	        0.0000000000	        0.0000000000	        0.0000000000	        0.0000000000	        0.0000000000	        0.0000000000	
        0.7468242213	       -0.1330406750	        0.0703141959	       -0.0103230806	        0.0000000000	        0.0000000000	        0.0000000000	      -69.4645686850	      687.9031163503	       18.6981817440	        1.0042018895	        0.0000000000	       -0.0529691494	        0.0000000000	        0.0000000000	        0.0000000000	        0.0000000000	        0.0000000000	        0.0000000000	
        0.7588697732	       -0.0775595956	        0.0389647410	       -0.0058765618	        0.0000000000	        0.0000000000	        0.0000000000	      -60.4465052174	      662.5975628706	       19.4269095172	        1.0090230637	        0.0000000000	       -0.0527432964	        0.0000000000	        0.0000000000	        0.0000000000	        0.0000000000	        0.0000000000	        0.0000000000	
        0.7709153252	       -0.0521711224	        0.0251315781	       -0.0038868775	        0.0000000000	        0.0000000000	        0.0000000000	      -51.8841946685	      640.8985739046	       19.6975139685	        1.0136532032	        0.0000000000	       -0.0525987541	        0.0000000000	        0.0000000000	        0.0000000000	        0.0000000000	        0.0000000000	        0.0000000000	
        0.7829608771	       -0.0436777504	        0.0203087634	       -0.0032087404	        0.0000000000	        0.0000000000	        0.0000000000	      -44.3086046864	      622.8085688880	       20.1245489737	        1.0182387366	        0.0000000000	       -0.0524952100	        0.0000000000	        0.0000000000	        0.0000000000	        0.0000000000	        0.0000000000	        0.0000000000	
        0.7950064291	       -0.0454590722	        0.0205082732	       -0.0032656606	        0.0000000000	        0.0000000000	        0.0000000000	      -37.4816406992	      607.8758106099	       20.1362500911	        1.0227630146	        0.0000000000	       -0.0524205706	        0.0000000000	        0.0000000000	        0.0000000000	        0.0000000000	        0.0000000000	        0.0000000000	
        0.8070519811	       -0.0574782607	        0.0252478782	       -0.0040191527	        0.0000000000	        0.0000000000	        0.0000000000	      -30.9207198201	      596.4275084040	       20.0463377289	        1.0275387395	        0.0000000000	       -0.0523283243	        0.0000000000	        0.0000000000	        0.0000000000	        0.0000000000	        0.0000000000	        0.0000000000	
        0.8190975330	       -0.0854839201	        0.0366391188	       -0.0057859660	        0.0000000000	        0.0000000000	        0.0000000000	      -25.6915424801	      588.3303885864	       19.8445789040	        1.0327323465	        0.0000000000	       -0.0521749298	        0.0000000000	        0.0000000000	        0.0000000000	        0.0000000000	        0.0000000000	        0.0000000000	
        0.8311430850	       -0.1423319085	        0.0596511271	       -0.0092686312	        0.0000000000	        0.0000000000	        0.0000000000	      -21.8337259609	      583.5456427008	       19.7028351056	        1.0382750001	        0.0000000000	       -0.0519420550	        0.0000000000	        0.0000000000	        0.0000000000	        0.0000000000	        0.0000000000	        0.0000000000	
        0.8431886369	       -0.2497839439	        0.1026067652	       -0.0156078958	        0.0000000000	        0.0000000000	        0.0000000000	      -18.5366977035	      581.3749348328	       19.7067687280	        1.0440983851	        0.0000000000	       -0.0516278254	        0.0000000000	        0.0000000000	        0.0000000000	        0.0000000000	        0.0000000000	        0.0000000000	
        0.8552341889	       -0.4347287959	        0.1754801412	       -0.0260142948	        0.0000000000	        0.0000000000	        0.0000000000	      -15.6581021849	      580.6179776959	       19.6417269741	        1.0500715195	        0.0000000000	       -0.0512511003	        0.0000000000	        0.0000000000	        0.0000000000	        0.0000000000	        0.0000000000	        0.0000000000	
        0.8672797408	       -0.7141837759	        0.2840310000	       -0.0409254722	        0.0000000000	        0.0000000000	        0.0000000000	      -12.9401196512	      579.8263238482	       19.8555881184	        1.0559969976	        0.0000000000	       -0.0508417983	        0.0000000000	        0.0000000000	        0.0000000000	        0.0000000000	        0.0000000000	        0.0000000000	
        0.8793252928	       -1.0707072218	        0.4206547350	       -0.0588156241	        0.0000000000	        0.0000000000	        0.0000000000	      -10.3066214978	      578.0125067917	       20.1200435164	        1.0617859153	        0.0000000000	       -0.0504236219	        0.0000000000	        0.0000000000	        0.0000000000	        0.0000000000	        0.0000000000	        0.0000000000	
        0.8913708447	       -1.4412418085	        0.5607922914	       -0.0759235067	        0.0000000000	        0.0000000000	        0.0000000000	       -7.7469476108	      575.2075346696	       20.1954792390	        1.0674403200	        0.0000000000	       -0.0500032790	        0.0000000000	        0.0000000000	        0.0000000000	        0.0000000000	        0.0000000000	        0.0000000000	
        0.9034163967	       -1.7461015806	        0.6743757023	       -0.0877649796	        0.0000000000	        0.0000000000	        0.0000000000	       -5.2055048484	      571.3827485238	       19.9090698756	        1.0729610261	        0.0000000000	       -0.0495832654	        0.0000000000	        0.0000000000	        0.0000000000	        0.0000000000	        0.0000000000	        0.0000000000	
        0.9154619487	       -1.9332100656	        0.7423607663	       -0.0910994354	        0.0000000000	        0.0000000000	        0.0000000000	       -2.6289357707	      566.7970210557	       19.1290295061	        1.0783673115	        0.0000000000	       -0.0491601784	        0.0000000000	        0.0000000000	        0.0000000000	        0.0000000000	        0.0000000000	        0.0000000000	
        0.9275075006	       -1.9994114215	        0.7641981939	       -0.0857881424	        0.0000000000	        0.0000000000	        0.0000000000	       -0.0165224923	      562.9184226386	       17.8571366424	        1.0838205996	        0.0000000000	       -0.0487066218	        0.0000000000	        0.0000000000	        0.0000000000	        0.0000000000	        0.0000000000	        0.0000000000	
        0.9395530526	       -1.9517998692	        0.7430580716	       -0.0726502990	        0.0000000000	        0.0000000000	        0.0000000000	        2.6134435452	      561.1242746229	       16.4720664124	        1.0893570042	        0.0000000000	       -0.0482064248	        0.0000000000	        0.0000000000	        0.0000000000	        0.0000000000	        0.0000000000	        0.0000000000	
        0.9515986045	       -1.7784388450	        0.6748873401	       -0.0538166068	        0.0000000000	        0.0000000000	        0.0000000000	        5.2730006948	      562.1720036609	       15.4300332805	        1.0948972251	        0.0000000000	       -0.0476614079	        0.0000000000	        0.0000000000	        0.0000000000	        0.0000000000	        0.0000000000	        0.0000000000	
